# xmcd
#
# Track frame offsets:
#	150
#	13207
#	33072
#	57570
#	77795
#	106225
#	124102
#	137287
#
# Disc length: 2091 seconds
#
# Revision: 1
# Processed by: cddbd v1.4PL0 Copyright (c) Steve Scherf et al.
# Submitted via: audiograbber 1.80
#
DISCID=5f082908
DTITLE=Rod Mason - Life
DYEAR=1900
DGENRE=
TTITLE0=Potato Head Blues
TTITLE1=How Can You Do A Thing Like This To Me
TTITLE2=After You've Gone
TTITLE3=Chicken Rhythm
TTITLE4=It Don't Mean A Thing
TTITLE5=Someday You'll Be Sorry
TTITLE6=Yellow Dog
TTITLE7=I'm Putting All My Eggs In One Basket
EXTD=
EXTT0=
EXTT1=
EXTT2=
EXTT3=
EXTT4=
EXTT5=
EXTT6=
EXTT7=
PLAYORDER=
